# xmcd
# 
# Track frame offsets:
#     150
#     14364
#     27912
#     40066
#     53768
#     67850
#     81068
#     95513
#     111040
#     126491
#     137955
#     148470
#     160567
#     174956
#     188615
#     202271
#     215618
#     229471
#     245531
#     258818
#     273778
#     286039
#     300684
#     312361
# 
# Disc length: 4296
# 
# Revision: 0
# Processed by: cddbd v1.5.2PL0 Copyright (c) Steve Scherf et al.
# Submitted via: fre:ac v1.1beta1pre4
# 
DISCID=5610c618
DTITLE=John Lee Hooker - 2009 - The Very Best Of John Lee Hooker [CD02)
DYEAR=2009
DGENRE=Blues
TTITLE0=Boogie Chillen
TTITLE1=Crawling Kingsnake
TTITLE2=Burnin' Hell
TTITLE3=Highway Blues
TTITLE4=Whistlin' And Moanin' Blues
TTITLE5=Hoogie Boogie
TTITLE6=Do The Boogie
TTITLE7=Goin' Home Blues
TTITLE8=Landing Blues
TTITLE9=Twister Blues
TTITLE10=Hastings Street Boogie
TTITLE11=Miss Eloise
TTITLE12=Graveyard Blues
TTITLE13=Sally Mae
TTITLE14=Miss Rosie Mae
TTITLE15=Hobo Blues
TTITLE16=Build Myself A Cave
TTITLE17=Alberta
TTITLE18=Lowdown Midnight Boogie
TTITLE19=Shady Grove Blues
TTITLE20=Walkin' The Boogie
TTITLE21=Sugar Mama
TTITLE22=Queen Bee
TTITLE23=Dimples (Alternate Version)
EXTD=
EXTT0=
EXTT1=
EXTT2=
EXTT3=
EXTT4=
EXTT5=
EXTT6=
EXTT7=
EXTT8=
EXTT9=
EXTT10=
EXTT11=
EXTT12=
EXTT13=
EXTT14=
EXTT15=
EXTT16=
EXTT17=
EXTT18=
EXTT19=
EXTT20=
EXTT21=
EXTT22=
EXTT23=
PLAYORDER=
